<?xml version="1.0" standalone="no"?>
<!DOCTYPE svg PUBLIC "-//W3C//DTD SVG 20010904//EN"
 "http://www.w3.org/TR/2001/REC-SVG-20010904/DTD/svg10.dtd">
<svg version="1.0" xmlns="http://www.w3.org/2000/svg"
 width="768.000000pt" height="768.000000pt" viewBox="0 0 768.000000 768.000000"
 preserveAspectRatio="xMidYMid meet">
<metadata>
Created by potrace 1.14, written by Peter Selinger 2001-2017
</metadata>
<g transform="translate(0.000000,768.000000) scale(0.100000,-0.100000)"
fill="#000000" stroke="none">
<path d="M1737 7674 c-1 -1 -33 -4 -72 -8 -76 -6 -90 -9 -210 -32 -192 -38
-440 -143 -621 -262 -281 -184 -502 -438 -649 -744 -49 -102 -118 -289 -129
-353 -3 -14 -7 -33 -10 -43 -3 -9 -7 -35 -11 -57 -9 -62 -14 -97 -21 -130 -10
-43 -12 -4282 -2 -4368 18 -178 43 -290 95 -442 61 -177 189 -408 305 -550
167 -204 399 -388 633 -500 111 -54 296 -121 362 -131 20 -3 46 -9 57 -14 12
-4 23 -8 26 -8 15 1 118 -15 135 -20 11 -4 1377 -8 3036 -9 l3015 -3 -2 3002
c-1 1652 -4 3021 -8 3043 -3 22 -8 51 -11 65 -3 14 -8 43 -11 65 -34 239 -182
563 -363 800 -119 156 -352 358 -526 455 -71 40 -214 110 -225 110 -6 0 -18 4
-28 9 -57 32 -273 91 -387 106 -27 4 -61 9 -75 12 -22 4 -4297 12 -4303 7z"/>
</g>
</svg>
